<svg id="Capa_1" enable-background="new 0 0 512 512" height="512" viewBox="0 0 512 512" width="512" xmlns="http://www.w3.org/2000/svg"><g><path d="m416 47v450c0 8.28-6.72 15-15 15h-290c-8.28 0-15-6.72-15-15v-450c0-8.28 6.72-15 15-15h290c8.28 0 15 6.72 15 15z" fill="#eaf6ff"/><path d="m376.999 480.062h-241.998c-3.866 0-7-3.134-7-7v-402.164c0-3.866 3.134-7 7-7h241.998c3.866 0 7 3.134 7 7v402.164c0 3.866-3.134 7-7 7z" fill="#aee69c"/><path d="m352.003 224.003c0 28.526-12.445 54.157-32.203 71.732-16.967 15.102-110.806 15.03-127.794-.175-19.645-17.575-32.008-43.123-32.008-71.556-.001-53.025 42.979-96.004 96.002-96.004s96.003 42.979 96.003 96.003z" fill="#365e7d"/><path d="m143.45 512h-32.45c-8.28 0-15-6.72-15-15v-450c0-8.28 6.72-15 15-15h32.45c-8.53 0-15.45 6.92-15.45 15.45v449.1c0 8.53 6.92 15.45 15.45 15.45z" fill="#d8ecfe"/><path d="m319.799 257.772v37.962c-16.967 15.102-39.301 24.271-63.799 24.271-24.59 0-47.007-9.241-63.995-24.446v-37.787c0-6.47 4.45-12.228 11.074-14.33l35.397-8.921h34.851l35.397 8.921c6.625 2.102 11.075 7.86 11.075 14.33z" fill="#9bd8f9"/><path d="m266.281 319.459c-3.379.361-6.809.546-10.281.546-24.59 0-47.007-9.241-63.995-24.446v-37.787c0-6.47 4.45-12.228 11.074-14.33l35.397-8.921h20.604l-35.397 8.921c-6.624 2.101-11.074 7.86-11.074 14.33v37.787c14.577 13.052 33.151 21.706 53.672 23.9z" fill="#73c3f9"/><path d="m281 96.003h-50c-3.866 0-7-3.134-7-7v-82.001c0-3.866 3.134-7 7-7h50c3.866 0 7 3.134 7 7v82.001c0 3.866-3.134 7-7 7z" fill="#f25a74"/><path d="m244.606 0v96.003h-13.604c-3.866 0-7-3.134-7-7v-82.003c0-3.866 3.134-7 7-7z" fill="#e83d5a"/><g><g><g><path d="m240 391.725h-47.999c-4.268 0-7.726-3.459-7.726-7.726s3.459-7.726 7.726-7.726h47.999c4.268 0 7.726 3.459 7.726 7.726s-3.458 7.726-7.726 7.726z" fill="#365e7d"/></g><g><path d="m240 423.725h-47.999c-4.268 0-7.726-3.459-7.726-7.726s3.459-7.726 7.726-7.726h47.999c4.268 0 7.726 3.459 7.726 7.726s-3.458 7.726-7.726 7.726z" fill="#365e7d"/></g><g><path d="m319.999 391.725h-47.999c-4.268 0-7.726-3.459-7.726-7.726s3.459-7.726 7.726-7.726h47.999c4.268 0 7.726 3.459 7.726 7.726s-3.458 7.726-7.726 7.726z" fill="#365e7d"/></g><g><path d="m319.999 423.725h-47.999c-4.268 0-7.726-3.459-7.726-7.726s3.459-7.726 7.726-7.726h47.999c4.268 0 7.726 3.459 7.726 7.726s-3.458 7.726-7.726 7.726z" fill="#365e7d"/></g><g><path d="m351.999 359.725h-191.998c-4.268 0-7.726-3.459-7.726-7.726s3.459-7.726 7.726-7.726h191.998c4.268 0 7.726 3.459 7.726 7.726s-3.458 7.726-7.726 7.726z" fill="#365e7d"/></g></g></g><circle cx="256" cy="64.002" fill="#2b4d66" r="7.71"/><path d="m224 196.781v10.958c0 17.552 14.327 31.78 32 31.78 17.673 0 32-14.228 32-31.78v-10.958c0-17.552-14.327-31.78-32-31.78-17.673 0-32 14.228-32 31.78z" fill="#ffcebf"/><path d="m266.302 237.842c-3.235 1.092-6.696 1.679-10.302 1.679-17.678 0-31.997-14.227-31.997-31.781v-10.961c0-8.777 3.585-16.72 9.375-22.478 5.789-5.748 13.784-9.303 22.623-9.303 3.606 0 7.067.587 10.302 1.679-4.698 1.587-8.89 4.224-12.321 7.623-5.79 5.759-9.375 13.701-9.375 22.478v10.961c-.001 13.97 9.075 25.838 21.695 30.103z" fill="#ffb09e"/></g></svg>